<svg height="273.086564" viewBox="0 0 59.130001 43.560001" width="366.184256" xmlns="http://www.w3.org/2000/svg"><path d="m0 0-7.894-.006 4.136-4.241h8.017l.126-.006.126-.015.131-.022.132-.035.135-.042.137-.052.137-.058.141-.068.137-.073.143-.082.141-.084.144-.091.14-.099.14-.1.144-.106.14-.107.14-.111.138-.112.137-.117.135-.113.263-.237.254-.234.241-.228.23-.219.211-.204.196-.19h-8.538l-.813-.033-.775-.102-.741-.167-.695-.225-.662-.289-.614-.345-.576-.397-.53-.448-.485-.499-.439-.544-.392-.587-.345-.626-.295-.667-.243-.698-.193-.734-.138-.762-.087-.789-.03-.813.026-.836.082-.853.141-.869.202-.882.263-.894.322-.9.389-.909.45-.909.515-.909.582-.907.65-.9.719-.894.787-.88.86-.868.644-.614.675-.593.711-.567.737-.546.764-.518.789-.488.807-.459.828-.426.84-.392.854-.357.86-.319.865-.279.869-.237.872-.196.866-.15.859-.102.852-.055.837-.003.824.047.807.105.784.158.764.216.734.275.705.338.673.398.637.468.6.532.556.602.514.669.466.745.415.819.362.894-4.109 4.135-.085-.625-.111-.599-.143-.573-.17-.549-.196-.52-.225-.497-.249-.471-.272-.442-.298-.415-.322-.388-.339-.362-.363-.333-.383-.307-.404-.278-.418-.249-.438-.222-.454-.192-.468-.164-.486-.138-.497-.105-.509-.076-.52-.047-.536-.014-.541.012-.552.044-.559.075-.568.106-.574.134-.578.17-.583.198-.587.231-.588.263-.451.272-.444.278-.433.283-.424.289-.416.293-.406.304-.395.307-.383.315-.372.319-.356.33-.349.336-.33.345-.322.351-.305.362-.286.369-.275.377-.258.385-.239.398-.225.406-.205.415-.187.424-.17.435-.149.448-.129.456-.108.467-.088.48-.064.487-.044.504-.021.514.003.526.024.537.053.553.087.532.103.506.117.482.135.455.148.436.161.41.182.386.193.364.21.342.225.319.24.298.258.278.272.254.289.237.305.216.321.199.337.175.353.161.369.14.386.123.401.105.418.088.436.073.454.056.47.04.486.026.503.009.521-.002.535-.021.555-.032.574-.044.588-.058v-2.587h-3.46l-.302-.093-.292-.103-.281-.102-.269-.109-.263-.113-.249-.12-.242-.123-.229-.131-.222-.134-.211-.144-.199-.149-.192-.155-.182-.164-.169-.169-.164-.178-.152-.187-.144-.194-.132-.201-.126-.214-.113-.218-.105-.229-.098-.239-.087-.249-.076-.26-.07-.269-.059-.28-.052-.29-.042-.304-.035-.312-.023-.325-.017-.338-.007-.349.016-.38.043-.388.065-.395.091-.4.11-.403.135-.41.158-.409.178-.412.199-.409.22-.407.24-.403.257-.401.275-.391.295-.385.311-.377.33-.366.342-.353.36-.342.374-.325.389-.313.401-.292.415-.277.43-.255.439-.234.451-.213.461-.19.472-.164.482-.134.489-.112.5-.078.506-.05.512-.017.43.011.421.024.407.037.395.054.382.066.372.079.36.094.345.111.334.123.321.134.308.152.292.164.281.178.269.19.251.204.24.22.226.234.21.246.196.26.181.274.17.286.152.298.134.316.124.328.105.339.09.353.074.369.061.38.041.391.027.406.008.421-.006.433-3.647 3.642v-.605l-.017-.579-.03-.552-.047-.53-.061-.506-.073-.478-.091-.457-.1-.432-.117-.412-.125-.389-.138-.365-.149-.345-.161-.325-.169-.304-.179-.283-.187-.266-.199-.243-.208-.225-.213-.21-.219-.187-.229-.173-.234-.154-.242-.138-.243-.122-.252-.106-.258-.093-.257-.076-.263-.062-.266-.046-.269-.032-.269-.021-.272-.009-.316.015-.307.032-.299.049-.286.068-.281.079-.266.096-.26.108-.25.124-.239.131-.229.146-.218.152-.208.164-.199.172-.19.181-.179.184-.169.194-.159.195-.148.201-.138.202-.129.208-.119.208-.106.207-.097.208-.087.207-.077.205-.066.204-.056.195-.044.197-.035.187-.024.184-.014.172-.003.167.008.158.016.163.023.164.032.17.041.172.05.175.055.176.062.178.072.181.077.178.084.182.094.181.096.181.106.179.114.178.117.178.123.172.129.173.134.166.141.167.146.161.152.158.155.152.161.149.164.14.169.137.173.129.175.122.181.117.185.108.19.1.191.091h6.177v6.547h4.165l-10.565 9.674-.114.082-.117.082-.123.078-.123.079-.128.079-.129.076-.135.076-.134.073-.138.071-.14.07-.143.07-.147.064-.146.065-.149.061-.152.061-.153.056-.154.055-.159.05-.157.05-.161.046-.161.041-.164.041-.164.038-.164.033-.166.028-.17.027-.167.023-.169.018-.17.014-.172.012-.17.006zm34.533-11.375v-11.437l4.074-3.829v15.266zm-11.507 0v-3.73l2.954.003.012-7.71 3.785-3.829.003 11.539 3.066-.003v3.73zm-5.724 0v-11.437l4.071-3.829v15.266z" fill="#2858a7" transform="matrix(1.25 0 0 -1.25 10.63591 .3133195)"/></svg>